<svg width="160" height="60" viewBox="0 0 160 60" fill="none" xmlns="http://www.w3.org/2000/svg">
<rect x="46" y="22" width="99" height="19" fill="#D7FBCF"/>
<path d="M77.118 31.772L74.752 32.08V24.492H73.268V32.262L64.742 33.354L64.938 34.768L73.268 33.704V37.456H74.752V33.508L77.328 33.186L77.118 31.772ZM68.396 25.01L67.36 26.018C68.9 27.11 70.09 28.118 70.93 29.042L72.022 27.95C71.042 26.97 69.824 25.99 68.396 25.01ZM66.912 27.992L65.876 29C67.402 30.064 68.578 31.058 69.418 31.968L70.552 30.834C69.558 29.896 68.34 28.944 66.912 27.992ZM78.686 24.968V26.396H82.732V28.076H79.442V37.386H80.912V36.868H89.116V37.386H90.586V28.076H87.212V26.396H91.314V24.968H78.686ZM80.912 35.496V33.62L81.892 34.474C83.376 33.438 84.146 31.786 84.174 29.518V29.448H85.77V31.982C85.77 33.046 86.274 33.592 87.31 33.592H89.116V35.496H80.912ZM84.174 26.396H85.77V28.076H84.174V26.396ZM80.912 33.354V29.448H82.732V29.518C82.704 31.254 82.102 32.528 80.912 33.354ZM87.212 29.448H89.116V32.262H87.758C87.394 32.262 87.212 32.038 87.212 31.618V29.448ZM101.114 32.15C101.772 34.012 102.836 35.566 104.32 36.812L105.356 35.594C103.942 34.614 102.92 33.326 102.276 31.744C103.088 31.422 103.858 31.03 104.572 30.582L103.592 29.602C102.5 30.302 101.352 30.82 100.134 31.17C99.882 30.694 99.56 30.246 99.168 29.826C99.476 29.644 99.77 29.448 100.078 29.238H103.144V27.894H94.856V29.238H97.768C97.516 29.35 97.25 29.462 96.984 29.574C95.85 30.036 94.646 30.4 93.372 30.652L94.114 31.87C95.794 31.366 97.096 30.89 97.992 30.456C97.992 30.442 98.02 30.428 98.048 30.428C98.16 30.568 98.286 30.708 98.398 30.876C97.138 31.744 95.374 32.472 93.106 33.046L93.834 34.292C95.976 33.676 97.698 32.878 99 31.926C99.098 32.15 99.182 32.388 99.266 32.654C97.768 33.83 95.654 34.796 92.924 35.566L93.652 36.812C96.046 36.084 97.992 35.16 99.504 34.04C99.504 34.124 99.518 34.222 99.518 34.334C99.518 35.076 99.392 35.58 99.168 35.846C98.972 36.042 98.496 36.154 97.74 36.154H97.012L97.502 37.442H97.936C99.224 37.442 100.064 37.176 100.442 36.672C100.75 36.252 100.918 35.482 100.918 34.334C100.904 33.606 100.806 32.934 100.61 32.29C100.778 32.248 100.946 32.206 101.114 32.15ZM99.378 24.408L97.88 24.66C98.034 24.94 98.174 25.248 98.314 25.584H92.966V28.244H94.408V26.928H103.578V28.244H105.034V25.584H99.798C99.658 25.15 99.518 24.758 99.378 24.408ZM119.118 27.208H116.584C117.046 26.606 117.494 25.864 117.942 24.996L116.43 24.436C116.024 25.416 115.548 26.34 114.988 27.208H112.846L114.008 26.62C113.588 25.794 113.14 25.038 112.692 24.352L111.362 24.996C111.824 25.64 112.258 26.382 112.664 27.208H109.892L110.732 26.788C110.284 26.004 109.836 25.29 109.36 24.646L108.03 25.29C108.492 25.85 108.926 26.494 109.346 27.208H106.882V30.694H108.324V28.608H117.662V30.694H119.118V27.208ZM109.206 29.364V30.652H114.666C114.106 30.932 113.364 31.254 112.44 31.646V32.682H106.966V34.054H112.44V35.608C112.44 35.944 112.3 36.126 112.034 36.126C111.432 36.126 110.872 36.112 110.368 36.084L110.732 37.414H112.524C113.448 37.414 113.91 36.966 113.91 36.098V34.054H119.076V32.682H113.91V32.29C114.974 31.758 115.94 31.212 116.808 30.652V29.364H109.206ZM128.582 24.604V28.552H125.628V29.98H128.582V35.566H125.124V36.994H133.44V35.566H130.066V29.98H133.118V28.552H130.066V24.604H128.582ZM122.534 32.108V37.442H123.976V31.912C124.452 32.276 124.914 32.696 125.39 33.186L126.216 31.912C125.544 31.338 124.816 30.834 124.046 30.414C124.774 29.448 125.32 28.482 125.67 27.502V26.27H124.158C123.99 25.71 123.78 25.094 123.514 24.45L122.128 24.828C122.352 25.29 122.562 25.766 122.758 26.27H120.868V27.67H124.186C123.542 29.056 122.324 30.484 120.532 31.94L120.994 33.48C121.54 33.018 122.058 32.556 122.534 32.108Z" fill="#14AF64"/>
<rect x="44" y="24" width="2" height="15" fill="black"/>
<rect x="147" y="39" width="2" height="15" transform="rotate(-180 147 39)" fill="black"/>
<rect x="143" y="20" width="2" height="95" transform="rotate(90 143 20)" fill="black"/>
<rect x="143" y="41" width="2" height="95" transform="rotate(90 143 41)" fill="black"/>
<rect x="46" y="22" width="2" height="2" fill="black"/>
<rect x="145" y="41" width="2" height="2" transform="rotate(-180 145 41)" fill="black"/>
<rect x="46" y="39" width="2" height="2" fill="black"/>
<rect x="145" y="24" width="2" height="2" transform="rotate(-180 145 24)" fill="black"/>
<rect x="19" y="17" width="34" height="25" fill="#D7FBCF"/>
<rect x="39" y="25" width="10" height="17" fill="#14AF64"/>
<rect x="37" y="23" width="3" height="10" fill="black"/>
<rect x="28.2389" y="31.239" width="1.41298" height="1.41298" fill="black"/>
<rect x="28.2389" y="29.8259" width="1.41298" height="1.41298" fill="black"/>
<rect x="37" y="23" width="5" height="4" fill="black"/>
<rect x="26.8259" y="31.239" width="1.41298" height="1.41298" fill="black"/>
<rect x="26.8259" y="29.8259" width="1.41298" height="1.41298" fill="black"/>
<rect x="26.8259" y="28.4131" width="1.41298" height="1.41298" fill="black"/>
<rect x="25.413" y="29.8259" width="1.41298" height="1.41298" fill="black"/>
<rect x="25.413" y="28.4131" width="1.41298" height="1.41298" fill="black"/>
<rect x="24" y="27" width="1.41298" height="1.41298" fill="black"/>
<rect x="29.6519" y="32.6519" width="1.41298" height="1.41298" fill="black"/>
<rect x="29.6519" y="31.239" width="1.41298" height="1.41298" fill="black"/>
<rect x="28.2389" y="32.6519" width="1.41298" height="1.41298" fill="black"/>
<rect x="31.0649" y="34.0649" width="1.41298" height="1.41298" fill="black"/>
<rect x="31.0649" y="32.6519" width="1.41298" height="1.41298" fill="black"/>
<rect x="29.6519" y="34.0649" width="1.41298" height="1.41298" fill="black"/>
<rect x="32.4779" y="35.4778" width="1.41298" height="1.41298" fill="black"/>
<rect x="32.4779" y="34.0649" width="1.41298" height="1.41298" fill="black"/>
<rect x="31.0649" y="35.4778" width="1.41298" height="1.41298" fill="black"/>
<rect x="33.8909" y="36.8909" width="0.70649" height="1.41298" fill="black"/>
<rect x="33.8909" y="35.4778" width="0.70649" height="1.41298" fill="black"/>
<rect x="32.4779" y="36.8909" width="1.41298" height="1.41298" fill="black"/>
<rect x="48" y="23" width="3" height="10" fill="black"/>
<rect x="40" y="21" width="8" height="4" fill="black"/>
<rect x="39" y="34" width="3" height="1" fill="black"/>
<rect x="46" y="34" width="3" height="1" fill="black"/>
<rect x="46" y="23" width="5" height="4" fill="black"/>
<rect x="37" y="32" width="5" height="2" fill="black"/>
<rect x="46" y="32" width="5" height="2" fill="black"/>
<rect x="35" y="35" width="18" height="3" fill="black"/>
<rect x="34" y="38" width="8" height="3" fill="black"/>
<rect x="46" y="38" width="8" height="3" fill="black"/>
<rect x="16" y="41" width="42" height="3" fill="black"/>
<rect x="20" y="16" width="33" height="3" fill="black"/>
<rect x="21" y="17" width="24" height="3" transform="rotate(90 21 17)" fill="black"/>
</svg>
