<svg width="160" height="60" viewBox="0 0 160 60" fill="none" xmlns="http://www.w3.org/2000/svg">
<rect x="46" y="18" width="99" height="19" fill="#14AF64"/>
<path d="M77.118 27.772L74.752 28.08V20.492H73.268V28.262L64.742 29.354L64.938 30.768L73.268 29.704V33.456H74.752V29.508L77.328 29.186L77.118 27.772ZM68.396 21.01L67.36 22.018C68.9 23.11 70.09 24.118 70.93 25.042L72.022 23.95C71.042 22.97 69.824 21.99 68.396 21.01ZM66.912 23.992L65.876 25C67.402 26.064 68.578 27.058 69.418 27.968L70.552 26.834C69.558 25.896 68.34 24.944 66.912 23.992ZM78.686 20.968V22.396H82.732V24.076H79.442V33.386H80.912V32.868H89.116V33.386H90.586V24.076H87.212V22.396H91.314V20.968H78.686ZM80.912 31.496V29.62L81.892 30.474C83.376 29.438 84.146 27.786 84.174 25.518V25.448H85.77V27.982C85.77 29.046 86.274 29.592 87.31 29.592H89.116V31.496H80.912ZM84.174 22.396H85.77V24.076H84.174V22.396ZM80.912 29.354V25.448H82.732V25.518C82.704 27.254 82.102 28.528 80.912 29.354ZM87.212 25.448H89.116V28.262H87.758C87.394 28.262 87.212 28.038 87.212 27.618V25.448ZM101.114 28.15C101.772 30.012 102.836 31.566 104.32 32.812L105.356 31.594C103.942 30.614 102.92 29.326 102.276 27.744C103.088 27.422 103.858 27.03 104.572 26.582L103.592 25.602C102.5 26.302 101.352 26.82 100.134 27.17C99.882 26.694 99.56 26.246 99.168 25.826C99.476 25.644 99.77 25.448 100.078 25.238H103.144V23.894H94.856V25.238H97.768C97.516 25.35 97.25 25.462 96.984 25.574C95.85 26.036 94.646 26.4 93.372 26.652L94.114 27.87C95.794 27.366 97.096 26.89 97.992 26.456C97.992 26.442 98.02 26.428 98.048 26.428C98.16 26.568 98.286 26.708 98.398 26.876C97.138 27.744 95.374 28.472 93.106 29.046L93.834 30.292C95.976 29.676 97.698 28.878 99 27.926C99.098 28.15 99.182 28.388 99.266 28.654C97.768 29.83 95.654 30.796 92.924 31.566L93.652 32.812C96.046 32.084 97.992 31.16 99.504 30.04C99.504 30.124 99.518 30.222 99.518 30.334C99.518 31.076 99.392 31.58 99.168 31.846C98.972 32.042 98.496 32.154 97.74 32.154H97.012L97.502 33.442H97.936C99.224 33.442 100.064 33.176 100.442 32.672C100.75 32.252 100.918 31.482 100.918 30.334C100.904 29.606 100.806 28.934 100.61 28.29C100.778 28.248 100.946 28.206 101.114 28.15ZM99.378 20.408L97.88 20.66C98.034 20.94 98.174 21.248 98.314 21.584H92.966V24.244H94.408V22.928H103.578V24.244H105.034V21.584H99.798C99.658 21.15 99.518 20.758 99.378 20.408ZM119.118 23.208H116.584C117.046 22.606 117.494 21.864 117.942 20.996L116.43 20.436C116.024 21.416 115.548 22.34 114.988 23.208H112.846L114.008 22.62C113.588 21.794 113.14 21.038 112.692 20.352L111.362 20.996C111.824 21.64 112.258 22.382 112.664 23.208H109.892L110.732 22.788C110.284 22.004 109.836 21.29 109.36 20.646L108.03 21.29C108.492 21.85 108.926 22.494 109.346 23.208H106.882V26.694H108.324V24.608H117.662V26.694H119.118V23.208ZM109.206 25.364V26.652H114.666C114.106 26.932 113.364 27.254 112.44 27.646V28.682H106.966V30.054H112.44V31.608C112.44 31.944 112.3 32.126 112.034 32.126C111.432 32.126 110.872 32.112 110.368 32.084L110.732 33.414H112.524C113.448 33.414 113.91 32.966 113.91 32.098V30.054H119.076V28.682H113.91V28.29C114.974 27.758 115.94 27.212 116.808 26.652V25.364H109.206ZM128.582 20.604V24.552H125.628V25.98H128.582V31.566H125.124V32.994H133.44V31.566H130.066V25.98H133.118V24.552H130.066V20.604H128.582ZM122.534 28.108V33.442H123.976V27.912C124.452 28.276 124.914 28.696 125.39 29.186L126.216 27.912C125.544 27.338 124.816 26.834 124.046 26.414C124.774 25.448 125.32 24.482 125.67 23.502V22.27H124.158C123.99 21.71 123.78 21.094 123.514 20.45L122.128 20.828C122.352 21.29 122.562 21.766 122.758 22.27H120.868V23.67H124.186C123.542 25.056 122.324 26.484 120.532 27.94L120.994 29.48C121.54 29.018 122.058 28.556 122.534 28.108Z" fill="white"/>
<rect x="44" y="20" width="2" height="15" fill="black"/>
<rect x="147" y="35" width="2" height="15" transform="rotate(-180 147 35)" fill="black"/>
<rect x="143" y="16" width="2" height="95" transform="rotate(90 143 16)" fill="black"/>
<rect x="143" y="37" width="2" height="95" transform="rotate(90 143 37)" fill="black"/>
<rect x="143" y="39" width="4" height="125" transform="rotate(90 143 39)" fill="black"/>
<rect x="46" y="18" width="2" height="2" fill="black"/>
<rect x="145" y="37" width="2" height="2" transform="rotate(-180 145 37)" fill="black"/>
<rect x="145" y="41" width="2" height="4" transform="rotate(-180 145 41)" fill="black"/>
<rect x="147" y="39" width="2" height="4" transform="rotate(-180 147 39)" fill="black"/>
<rect x="46" y="35" width="2" height="2" fill="black"/>
<rect x="145" y="20" width="2" height="2" transform="rotate(-180 145 20)" fill="black"/>
<rect x="19" y="13" width="34" height="25" fill="#D7FBCF"/>
<rect x="39" y="21" width="10" height="17" fill="#14AF64"/>
<rect x="37" y="19" width="3" height="10" fill="black"/>
<rect x="28.2389" y="27.239" width="1.41298" height="1.41298" fill="black"/>
<rect x="28.2389" y="25.8259" width="1.41298" height="1.41298" fill="black"/>
<rect x="37" y="19" width="5" height="4" fill="black"/>
<rect x="26.8259" y="27.239" width="1.41298" height="1.41298" fill="black"/>
<rect x="26.8259" y="25.8259" width="1.41298" height="1.41298" fill="black"/>
<rect x="26.8259" y="24.4131" width="1.41298" height="1.41298" fill="black"/>
<rect x="25.413" y="25.8259" width="1.41298" height="1.41298" fill="black"/>
<rect x="25.413" y="24.4131" width="1.41298" height="1.41298" fill="black"/>
<rect x="24" y="23" width="1.41298" height="1.41298" fill="black"/>
<rect x="29.6519" y="28.6519" width="1.41298" height="1.41298" fill="black"/>
<rect x="29.6519" y="27.239" width="1.41298" height="1.41298" fill="black"/>
<rect x="28.2389" y="28.6519" width="1.41298" height="1.41298" fill="black"/>
<rect x="31.0649" y="30.0649" width="1.41298" height="1.41298" fill="black"/>
<rect x="31.0649" y="28.6519" width="1.41298" height="1.41298" fill="black"/>
<rect x="29.6519" y="30.0649" width="1.41298" height="1.41298" fill="black"/>
<rect x="32.4779" y="31.4778" width="1.41298" height="1.41298" fill="black"/>
<rect x="32.4779" y="30.0649" width="1.41298" height="1.41298" fill="black"/>
<rect x="31.0649" y="31.4778" width="1.41298" height="1.41298" fill="black"/>
<rect x="33.8909" y="32.8909" width="0.70649" height="1.41298" fill="black"/>
<rect x="33.8909" y="31.4778" width="0.70649" height="1.41298" fill="black"/>
<rect x="32.4779" y="32.8909" width="1.41298" height="1.41298" fill="black"/>
<rect x="48" y="19" width="3" height="10" fill="black"/>
<rect x="40" y="17" width="8" height="4" fill="black"/>
<rect x="39" y="30" width="3" height="1" fill="black"/>
<rect x="46" y="30" width="3" height="1" fill="black"/>
<rect x="46" y="19" width="5" height="4" fill="black"/>
<rect x="37" y="28" width="5" height="2" fill="black"/>
<rect x="46" y="28" width="5" height="2" fill="black"/>
<rect x="35" y="31" width="18" height="3" fill="black"/>
<rect x="34" y="34" width="8" height="3" fill="black"/>
<rect x="46" y="34" width="8" height="3" fill="black"/>
<rect x="16" y="37" width="42" height="3" fill="black"/>
<rect x="20" y="12" width="33" height="3" fill="black"/>
<rect x="21" y="13" width="24" height="3" transform="rotate(90 21 13)" fill="black"/>
</svg>
