<svg width="96" height="23" viewBox="0 0 96 23" fill="none" xmlns="http://www.w3.org/2000/svg">
<rect x="2" y="2" width="92" height="19" fill="#FEB846"/>
<rect x="11" y="6" width="12" height="9" fill="#F8AD2E"/>
<rect x="18" y="6" width="5" height="5" fill="#F77622"/>
<rect x="8" y="9" width="18" height="3" fill="#F8AD2E"/>
<rect x="12" y="10" width="6" height="5" fill="#F77622"/>
<rect x="16" y="14" width="2" height="3" fill="#F8AD2E"/>
<rect x="13" y="4" width="8" height="2" fill="#FFE761"/>
<rect x="11" y="9" width="6" height="2" fill="#FFE761"/>
<rect x="17" y="9" width="6" height="2" fill="#FFE761"/>
<rect x="19" y="11" width="2" height="2" fill="#FFE761"/>
<rect x="13" y="12" width="2" height="2" fill="#FFE761"/>
<rect x="18" y="11" width="1" height="1" fill="#FFE761"/>
<rect x="12" y="12" width="1" height="1" fill="#FFE761"/>
<rect x="13" y="7" width="2" height="2" fill="#FFE761"/>
<rect x="15" y="8" width="1" height="1" fill="#FFE761"/>
<rect x="11" y="5" width="2" height="2" fill="#FFE761"/>
<rect width="2" height="1" transform="matrix(-1 0 0 1 10 11)" fill="#FFE761"/>
<rect x="24" y="11" width="2" height="1" fill="#FFE761"/>
<rect width="2" height="2" transform="matrix(-1 0 0 1 23 5)" fill="#FFE761"/>
<rect x="10" y="6" width="2" height="2" fill="#FFE761"/>
<rect width="2" height="1" transform="matrix(-1 0 0 1 11 12)" fill="#FFE761"/>
<rect x="23" y="12" width="2" height="1" fill="#FFE761"/>
<rect width="2" height="2" transform="matrix(-1 0 0 1 24 6)" fill="#FFE761"/>
<rect x="9" y="7" width="2" height="2" fill="#FFE761"/>
<rect width="2" height="1" transform="matrix(-1 0 0 1 12 13)" fill="#FFE761"/>
<rect x="22" y="13" width="2" height="1" fill="#FFE761"/>
<rect width="2" height="2" transform="matrix(-1 0 0 1 25 7)" fill="#FFE761"/>
<rect x="8" y="8" width="2" height="2" fill="#FFE761"/>
<rect width="2" height="1" transform="matrix(-1 0 0 1 13 14)" fill="#FFE761"/>
<rect x="21" y="14" width="2" height="1" fill="#FFE761"/>
<rect width="2" height="2" transform="matrix(-1 0 0 1 26 8)" fill="#FFE761"/>
<rect x="7" y="9" width="1" height="2" fill="#FFE761"/>
<rect width="2" height="1" transform="matrix(-1 0 0 1 14 15)" fill="#FFE761"/>
<rect x="20" y="15" width="2" height="1" fill="#FFE761"/>
<rect width="2" height="2" transform="matrix(-1 0 0 1 16 15)" fill="#FFE761"/>
<rect x="18" y="15" width="2" height="2" fill="#FFE761"/>
<rect width="1" height="1" transform="matrix(-1 0 0 1 16 17)" fill="#FFE761"/>
<rect x="18" y="17" width="1" height="1" fill="#FFE761"/>
<rect width="2" height="1" transform="matrix(-1 0 0 1 18 17)" fill="#FFE761"/>
<rect width="2" height="1" transform="matrix(-1 0 0 1 18 18)" fill="#FFE761"/>
<rect width="1" height="2" transform="matrix(-1 0 0 1 27 9)" fill="#FFE761"/>
<mask id="path-42-outside-1" maskUnits="userSpaceOnUse" x="6" y="3" width="22" height="17" fill="black">
<rect fill="white" x="6" y="3" width="22" height="17"/>
<path fill-rule="evenodd" clip-rule="evenodd" d="M21 4H13V5H11V6H10V7H9V8H8V9H7V11H8V12H9V13H10V14H11V15H12V16H14V17H15V18H16V19H18V18H19V17H20V16H22V15H23V14H24V13H25V12H26V11H27V9H26V8H25V7H24V6H23V5H21V4Z"/>
</mask>
<path d="M13 4V3H12V4H13ZM21 4H22V3H21V4ZM13 5V6H14V5H13ZM11 5V4H10V5H11ZM11 6V7H12V6H11ZM10 6V5H9V6H10ZM10 7V8H11V7H10ZM9 7V6H8V7H9ZM9 8V9H10V8H9ZM8 8V7H7V8H8ZM8 9V10H9V9H8ZM7 9V8H6V9H7ZM7 11H6V12H7V11ZM8 11H9V10H8V11ZM8 12H7V13H8V12ZM9 12H10V11H9V12ZM9 13H8V14H9V13ZM10 13H11V12H10V13ZM10 14H9V15H10V14ZM11 14H12V13H11V14ZM11 15H10V16H11V15ZM12 15H13V14H12V15ZM12 16H11V17H12V16ZM14 16H15V15H14V16ZM14 17H13V18H14V17ZM15 17H16V16H15V17ZM15 18H14V19H15V18ZM16 18H17V17H16V18ZM16 19H15V20H16V19ZM18 19V20H19V19H18ZM18 18V17H17V18H18ZM19 18V19H20V18H19ZM19 17V16H18V17H19ZM20 17V18H21V17H20ZM20 16V15H19V16H20ZM22 16V17H23V16H22ZM22 15V14H21V15H22ZM23 15V16H24V15H23ZM23 14V13H22V14H23ZM24 14V15H25V14H24ZM24 13V12H23V13H24ZM25 13V14H26V13H25ZM25 12V11H24V12H25ZM26 12V13H27V12H26ZM26 11V10H25V11H26ZM27 11V12H28V11H27ZM27 9H28V8H27V9ZM26 9H25V10H26V9ZM26 8H27V7H26V8ZM25 8H24V9H25V8ZM25 7H26V6H25V7ZM24 7H23V8H24V7ZM24 6H25V5H24V6ZM23 6H22V7H23V6ZM23 5H24V4H23V5ZM21 5H20V6H21V5ZM13 5H21V3H13V5ZM14 5V4H12V5H14ZM11 6H13V4H11V6ZM12 6V5H10V6H12ZM10 7H11V5H10V7ZM11 7V6H9V7H11ZM9 8H10V6H9V8ZM10 8V7H8V8H10ZM8 9H9V7H8V9ZM9 9V8H7V9H9ZM7 10H8V8H7V10ZM8 11V9H6V11H8ZM8 10H7V12H8V10ZM9 12V11H7V12H9ZM9 11H8V13H9V11ZM10 13V12H8V13H10ZM10 12H9V14H10V12ZM11 14V13H9V14H11ZM11 13H10V15H11V13ZM12 15V14H10V15H12ZM12 14H11V16H12V14ZM13 16V15H11V16H13ZM14 15H12V17H14V15ZM15 17V16H13V17H15ZM15 16H14V18H15V16ZM16 18V17H14V18H16ZM16 17H15V19H16V17ZM17 19V18H15V19H17ZM18 18H16V20H18V18ZM17 18V19H19V18H17ZM19 17H18V19H19V17ZM18 17V18H20V17H18ZM20 16H19V18H20V16ZM19 16V17H21V16H19ZM22 15H20V17H22V15ZM21 15V16H23V15H21ZM23 14H22V16H23V14ZM22 14V15H24V14H22ZM24 13H23V15H24V13ZM23 13V14H25V13H23ZM25 12H24V14H25V12ZM24 12V13H26V12H24ZM26 11H25V13H26V11ZM25 11V12H27V11H25ZM26 12H27V10H26V12ZM28 11V9H26V11H28ZM27 8H26V10H27V8ZM25 8V9H27V8H25ZM25 9H26V7H25V9ZM24 7V8H26V7H24ZM24 8H25V6H24V8ZM23 6V7H25V6H23ZM23 7H24V5H23V7ZM22 5V6H24V5H22ZM21 6H23V4H21V6ZM20 4V5H22V4H20Z" fill="black" mask="url(#path-42-outside-1)"/>
<path d="M42.626 4.38L41.702 5.262C42.248 5.682 42.696 6.102 43.046 6.494H41.072C41.044 5.85 41.03 5.178 41.03 4.464H39.546C39.546 5.164 39.546 5.85 39.574 6.494H33.806V11.156C33.764 13.424 33.316 15.202 32.448 16.476L33.554 17.47C34.632 15.888 35.206 13.802 35.276 11.198H37.25C37.222 12.626 37.18 13.508 37.096 13.83C37.026 14.11 36.872 14.25 36.648 14.264C36.256 14.264 35.794 14.236 35.234 14.194L35.682 15.524C36.102 15.566 36.48 15.594 36.816 15.594C37.572 15.58 38.062 15.286 38.286 14.698C38.524 14.054 38.664 12.43 38.706 9.826H35.276V7.88H39.644C39.756 9.56 39.952 10.974 40.26 12.094C40.414 12.668 40.582 13.2 40.778 13.69C39.854 14.81 38.734 15.664 37.418 16.252L38.258 17.484C39.462 16.952 40.526 16.182 41.45 15.174C41.618 15.482 41.814 15.762 42.01 16.014C42.696 16.84 43.34 17.26 43.956 17.26C44.656 17.26 45.174 16.266 45.538 14.292L44.222 13.578C44.04 14.922 43.872 15.594 43.732 15.594C43.522 15.594 43.214 15.286 42.822 14.684C42.682 14.474 42.542 14.222 42.416 13.942C43.27 12.696 43.97 11.184 44.516 9.406L43.186 8.832C42.822 10.092 42.36 11.226 41.8 12.206C41.744 12.01 41.688 11.828 41.646 11.632C41.422 10.764 41.254 9.504 41.142 7.88H45.258V6.494H43.592L44.236 5.836C43.788 5.346 43.256 4.856 42.626 4.38ZM48.772 4.814L47.666 5.612C48.422 6.396 49.038 7.124 49.5 7.768L50.648 6.984C50.2 6.354 49.584 5.626 48.772 4.814ZM53.84 10.694L52.664 11.436C53.532 12.5 54.232 13.466 54.75 14.334L56.038 13.438C55.52 12.654 54.792 11.744 53.84 10.694ZM51.53 4.492V6.606C51.516 7.012 51.488 7.418 51.46 7.824H47.12V9.252H51.306C51.124 10.512 50.83 11.604 50.438 12.542C49.78 13.97 48.52 15.16 46.644 16.112L47.47 17.414C49.36 16.532 50.718 15.272 51.544 13.648C52.132 12.472 52.538 11.002 52.776 9.252H57.116C57.116 10.904 57.074 12.444 56.99 13.844C56.906 15.244 56.57 15.972 55.996 16.028C55.338 16.028 54.61 15.972 53.826 15.888L54.218 17.302C54.722 17.358 55.338 17.386 56.066 17.386C57.018 17.386 57.69 16.812 58.068 15.692C58.432 14.572 58.614 11.94 58.614 7.824H52.916C52.944 7.432 52.958 7.026 52.972 6.606V4.492H51.53ZM66.468 4.464C64.844 6.284 62.814 7.796 60.364 9L61.148 10.428C61.988 9.966 62.786 9.476 63.528 8.958V10.022H70.514V9.014C71.228 9.518 71.984 9.994 72.796 10.414L73.594 8.986C71.298 7.894 69.282 6.382 67.532 4.464H66.468ZM63.948 8.65C65.124 7.782 66.132 6.816 67 5.78C67.882 6.844 68.89 7.796 70.038 8.65H63.948ZM61.33 11.45V12.878H64.494C64.004 13.774 63.416 14.642 62.716 15.468C62.562 15.636 62.31 15.776 61.96 15.86L62.352 17.134C65.6 16.938 68.302 16.672 70.472 16.336C70.738 16.7 70.99 17.078 71.228 17.442L72.446 16.588C71.746 15.58 70.766 14.376 69.492 13.004L68.358 13.718C68.82 14.25 69.254 14.768 69.66 15.272C67.868 15.482 66.02 15.636 64.13 15.748C64.914 14.936 65.6 13.97 66.188 12.878H72.698V11.45H61.33ZM85.872 9.49H76.142V15.048H77.598V10.82H84.416V14.824H85.872V9.49ZM76.968 4.884V8.706H85.046V4.884H76.968ZM83.632 7.446H78.382V6.172H83.632V7.446ZM80.384 11.478C80.286 13.13 79.922 14.306 79.292 14.978C78.564 15.678 77.08 16.084 74.84 16.196L75.414 17.526C78.158 17.274 79.866 16.7 80.566 15.832C81.238 15.146 81.672 13.746 81.868 11.618L80.384 11.478ZM82.148 14.614L81.42 15.692C83.1 16.14 84.738 16.756 86.334 17.54L87.118 16.322C85.606 15.65 83.954 15.09 82.148 14.614Z" fill="#191B19"/>
<rect y="4" width="2" height="15" fill="black"/>
<rect x="96" y="19" width="2" height="15" transform="rotate(-180 96 19)" fill="black"/>
<rect x="92" width="2" height="88" transform="rotate(90 92 0)" fill="black"/>
<rect x="92" y="21" width="2" height="88" transform="rotate(90 92 21)" fill="black"/>
<rect x="2" y="2" width="2" height="2" fill="black"/>
<rect x="94" y="21" width="2" height="2" transform="rotate(-180 94 21)" fill="black"/>
<rect x="2" y="19" width="2" height="2" fill="black"/>
<rect x="94" y="4" width="2" height="2" transform="rotate(-180 94 4)" fill="black"/>
</svg>
