<svg width="160" height="60" viewBox="0 0 160 60" fill="none" xmlns="http://www.w3.org/2000/svg">
<rect x="12" y="13" width="137" height="29" fill="#14AF64"/>
<path d="M128.782 24.7363H128.282V25.2363V27.4456H123.363H122.863V27.9456V29.7518V30.2518H123.363H128.282V32.4611V32.9611H128.782H130.588H131.088V32.4611V32.058H132.394H132.894V31.558V31.1549H134.2H134.7V30.6549V30.2518H136.006H136.506V29.7518V27.9456V27.4456H136.006H134.7V27.0425V26.5425H134.2H132.894V26.1394V25.6394H132.394H131.088V25.2363V24.7363H130.588H128.782Z" fill="white" stroke="black"/>
<path d="M127.879 23.8333H127.379V24.3333V26.5426H123.363H122.863V27.0426V28.8488V29.3488H123.363H127.379V31.558V32.058H127.879H129.685H130.185V31.558V31.1549H131.491H131.991V30.6549V30.2518H133.297H133.797V29.7518V29.3488H135.103H135.603V28.8488V27.0426V26.5426H135.103H133.797V26.1395V25.6395H133.297H131.991V25.2364V24.7364H131.491H130.185V24.3333V23.8333H129.685H127.879Z" fill="white" stroke="black"/>
<rect x="11.5186" y="38.1851" width="137.259" height="6.29627" fill="#0C7442"/>
<rect x="148" y="17" width="3" height="30" fill="#131313"/>
<rect x="9" y="17" width="3" height="30" fill="#131313"/>
<rect x="149" y="13" width="3.00001" height="135" transform="rotate(90 149 13)" fill="#131313"/>
<rect x="149" y="44" width="3.00001" height="137" transform="rotate(90 149 44)" fill="#131313"/>
<rect x="146" y="13" width="3" height="28" fill="#131313"/>
<rect x="12" y="13" width="3" height="28" fill="#131313"/>
<path d="M117.168 22.9606L115.967 21.7745H115.38V21.0233V20.2721L114.579 19.4813L114.179 19.0859H113.418H104.572H103.811V19.8371V21.7877H102.784H102.036V22.5389V31.3952V32.1465L102.437 32.5418L102.837 32.9372L103.237 33.3326H103.824V34.0838V34.835L104.625 35.6257L105.025 36.0211H105.786H114.633H115.393V35.2699V33.3458H116.421H117.181V32.5946V23.7118L117.168 22.9606ZM110.71 30.644H108.495V24.463H110.71V30.644Z" fill="#131313"/>
<path d="M34.6644 20.8385L34.264 20.4431H33.5835V20.285L32.3826 19.0989H31.622H20.3333V34.7952L21.5342 35.9813H27.312V31.4741H33.5835V30.143H35.465V22.3673V21.6161L34.6644 20.8385ZM29.0067 26.1234H27.312V24.4628H29.0067V26.1234Z" fill="#131313"/>
<path d="M49.3955 30.6443H48.6483H42.4435V20.2855L41.6429 19.5079L41.2426 19.1125H35.4648V34.8089L36.6524 35.995H37.413H49.8359H50.5965V35.2438V32.5684V31.8172L49.3955 30.6443Z" fill="#131313"/>
<path d="M64.8473 25.4912H64.4737V25.1354V24.3842L63.6731 23.5934L63.2728 23.1981H63.1127V22.974V22.2228L61.9117 21.0367H61.1512H61.0044V20.2855L60.2038 19.4947L59.8034 19.0994H59.0695H56.3608H55.6002V19.8506V21.0367H54.2658H53.5052V21.7879V23.2113H52.9048H52.1442V23.9625V25.5044H51.3302H50.5696V26.2556V34.0709V34.8221L51.7706 36.0082H57.5617V34.1104H59.0429V34.8352L60.2438 36.0214H66.0349V27.4549V26.7037L64.8473 25.4912ZM59.0562 28.7465H57.5751V28.3511H58.1755H58.9361H59.0562V28.7465Z" fill="#131313"/>
<path d="M80.6866 19.5077L80.2863 19.1123H79.5257H75.2557H74.4951V19.8635V24.3312H74.3083V23.9359L73.908 23.5405H73.1474H73.0006V22.9606L71.7997 21.7745H71.4261V21.0233V20.2721L70.6255 19.4813L70.2251 19.0859H69.4646H66.7558H65.9952V19.8371V22.5125V24.2653V34.7955L67.1961 35.9816H72.9873V30.7758H73.1741V31.1712L73.5744 31.5666H74.4684V32.1465L75.6694 33.3326H76.043V34.8218L77.2439 36.0079H78.0045H80.7133H81.4738V35.2567V32.5814V25.3724V21.0364V20.2852L80.6866 19.5077Z" fill="#131313"/>
<path d="M100.836 26.2161H100.249V26.0579L99.0478 24.8718H98.2872H93.8571H93.3634V24.4501H99.4881H100.249V23.6989V21.0367V20.2855L99.4481 19.4947L99.0478 19.0994H98.2872H89.4404H88.6798V19.8506V21.7879H87.6523H86.8917V22.5391V31.3955V32.1467L87.6923 32.9375L88.0927 33.3328H88.6798V34.084V34.8352L89.4804 35.626L89.8807 36.0214H90.6413H99.4881H100.249V35.2702V33.346H101.276H102.037V32.5948V28.1402V27.389L100.836 26.2161ZM95.5784 30.6443H93.3634V29.0496H93.5102V29.445L93.9105 29.8404L94.3108 30.2357H95.0714H95.5784V30.6443Z" fill="#131313"/>
<path d="M40.4953 19.8496H36.212V31.3945V33.9776V34.0567H48.6483V31.3945H40.4953V19.8496Z" fill="white"/>
<path d="M31.6354 19.8503H25.3639H21.0939V22.5257V26.8748V29.5502V34.0706H25.3639V29.5502H31.6354V28.2059H33.5169V21.1946H31.6354V19.8503ZM25.3639 22.5257H29.7673V26.8748H25.3639V22.5257Z" fill="white"/>
<path d="M62.5257 23.9615H61.178V21.7869H59.0697V19.8496H56.361V21.7869H54.266V23.9615H52.9183V26.2415H51.3571V34.0567H55.6271V32.1589H59.817V34.0567H64.0869V26.2415H62.5257V23.9615ZM55.6271 26.426H56.9748V23.9615H58.4559V26.426H59.8036V29.4967H55.6137V26.426H55.6271Z" fill="white"/>
<path d="M113.419 22.525V19.8496H104.572V22.525H102.784V31.3814H104.572V34.0567H113.419V31.3945H115.207V22.525H113.419ZM106.533 31.3945V22.525H111.457V31.3814H106.533V31.3945Z" fill="white"/>
<path d="M98.2872 26.9532V25.6221H93.8704V28.2974H96.3257V31.3945H91.4018V22.525H98.2872V19.8496H89.4403V22.525H87.6523V31.3945H89.4403V34.0567H98.2872V31.3945H100.075V26.9532H98.2872Z" fill="white"/>
<path d="M71.0657 24.2778V22.525H69.5045V19.8496H66.7957V22.525V24.2778V26.9532V34.0567H71.0657V26.9532H73.1607V24.2778H71.0657Z" fill="white"/>
<path d="M75.2556 26.9532H73.1607V29.6285H75.2556V31.3945H76.8168V34.0567H79.5256V31.3945V24.1987V19.8496H75.2556V26.9532Z" fill="white"/>
</svg>
