<svg width="160" height="60" viewBox="0 0 160 60" fill="none" xmlns="http://www.w3.org/2000/svg">
<rect x="11.5186" y="17" width="137.259" height="28.9628" fill="#14AF64"/>
<path d="M128.782 28.7363H128.282V29.2363V31.4456H123.363H122.863V31.9456V33.7518V34.2518H123.363H128.282V36.4611V36.9611H128.782H130.588H131.088V36.4611V36.058H132.394H132.894V35.558V35.1549H134.2H134.7V34.6549V34.2518H136.006H136.506V33.7518V31.9456V31.4456H136.006H134.7V31.0425V30.5425H134.2H132.894V30.1394V29.6394H132.394H131.088V29.2363V28.7363H130.588H128.782Z" fill="white" stroke="black"/>
<path d="M127.879 27.8333H127.379V28.3333V30.5426H123.363H122.863V31.0426V32.8488V33.3488H123.363H127.379V35.558V36.058H127.879H129.685H130.185V35.558V35.1549H131.491H131.991V34.6549V34.2518H133.297H133.797V33.7518V33.3488H135.103H135.603V32.8488V31.0426V30.5426H135.103H133.797V30.1395V29.6395H133.297H131.991V29.2364V28.7364H131.491H130.185V28.3333V27.8333H129.685H127.879Z" fill="white" stroke="black"/>
<rect x="148" y="17" width="3" height="30" fill="#131313"/>
<rect x="9" y="17" width="3" height="30" fill="#131313"/>
<rect x="149" y="17" width="3.00001" height="135" transform="rotate(90 149 17)" fill="#131313"/>
<rect x="149" y="44" width="3.00001" height="137" transform="rotate(90 149 44)" fill="#131313"/>
<rect x="146.259" y="17" width="2.51851" height="27.7036" fill="#131313"/>
<rect x="12" y="17" width="3" height="28" fill="#131313"/>
<path d="M117.168 26.9606L115.967 25.7745H115.38V25.0233V24.2721L114.579 23.4813L114.179 23.0859H113.418H104.572H103.811V23.8371V25.7877H102.783H102.036V26.5389V35.3952V36.1465L102.437 36.5418L102.837 36.9372L103.237 37.3326H103.824V38.0838V38.835L104.625 39.6257L105.025 40.0211H105.786H114.633H115.393V39.2699V37.3458H116.421H117.181V36.5946V27.7118L117.168 26.9606ZM110.71 34.644H108.495V28.463H110.71V34.644Z" fill="#131313"/>
<path d="M34.6643 24.8385L34.264 24.4431H33.5835V24.285L32.3826 23.0989H31.622H20.3333V38.7952L21.5342 39.9813H27.312V35.4741H33.5835V34.143H35.4649V26.3673V25.6161L34.6643 24.8385ZM29.0066 30.1234H27.312V28.4628H29.0066V30.1234Z" fill="#131313"/>
<path d="M49.3955 34.6443H48.6483H42.4435V24.2855L41.6429 23.5079L41.2426 23.1125H35.4648V38.8089L36.6524 39.995H37.413H49.8359H50.5965V39.2438V36.5684V35.8172L49.3955 34.6443Z" fill="#131313"/>
<path d="M64.8473 29.4912H64.4737V29.1354V28.3842L63.673 27.5934L63.2727 27.1981H63.1126V26.974V26.2228L61.9117 25.0367H61.1511H61.0043V24.2855L60.2037 23.4947L59.8034 23.0994H59.0695H56.3607H55.6001V23.8506V25.0367H54.2658H53.5052V25.7879V27.2113H52.9047H52.1441V27.9625V29.5044H51.3302H50.5696V30.2556V38.0709V38.8221L51.7705 40.0082H57.5617V38.1104H59.0428V38.8352L60.2437 40.0214H66.0349V31.4549V30.7037L64.8473 29.4912ZM59.0561 32.7465H57.575V32.3511H58.1755H58.936H59.0561V32.7465Z" fill="#131313"/>
<path d="M80.6865 23.5077L80.2862 23.1123H79.5256H75.2557H74.4951V23.8635V28.3312H74.3083V27.9359L73.908 27.5405H73.1474H73.0006V26.9606L71.7997 25.7745H71.426V25.0233V24.2721L70.6254 23.4813L70.2251 23.0859H69.4645H66.7558H65.9952V23.8371V26.5125V28.2653V38.7955L67.1961 39.9816H72.9872V34.7758H73.1741V35.1712L73.5744 35.5666H74.4684V36.1465L75.6693 37.3326H76.0429V38.8218L77.2439 40.0079H78.0045H80.7132H81.4738V39.2567V36.5814V29.3724V25.0364V24.2852L80.6865 23.5077Z" fill="#131313"/>
<path d="M100.836 30.2161H100.249V30.0579L99.0477 28.8718H98.2871H93.857H93.3633V28.4501H99.4881H100.249V27.6989V25.0367V24.2855L99.448 23.4947L99.0477 23.0994H98.2871H89.4403H88.6797V23.8506V25.7879H87.6523H86.8917V26.5391V35.3955V36.1467L87.6923 36.9375L88.0926 37.3328H88.6797V38.084V38.8352L89.4803 39.626L89.8806 40.0214H90.6412H99.4881H100.249V39.2702V37.346H101.276H102.037V36.5948V32.1402V31.389L100.836 30.2161ZM95.5784 34.6443H93.3633V33.0496H93.5101V33.445L93.9104 33.8404L94.3107 34.2357H95.0713H95.5784V34.6443Z" fill="#131313"/>
<path d="M40.4953 23.8496H36.212V35.3945V37.9776V38.0567H48.6483V35.3945H40.4953V23.8496Z" fill="white"/>
<path d="M31.6354 23.8503H25.3638H21.0939V26.5257V30.8748V33.5502V38.0706H25.3638V33.5502H31.6354V32.2059H33.5168V25.1946H31.6354V23.8503ZM25.3638 26.5257H29.7672V30.8748H25.3638V26.5257Z" fill="white"/>
<path d="M62.5257 27.9615H61.178V25.7869H59.0697V23.8496H56.3609V25.7869H54.266V27.9615H52.9183V30.2415H51.3571V38.0567H55.627V36.1589H59.8169V38.0567H64.0869V30.2415H62.5257V27.9615ZM55.627 30.426H56.9747V27.9615H58.4559V30.426H59.8036V33.4967H55.6137V30.426H55.627Z" fill="white"/>
<path d="M113.419 26.525V23.8496H104.572V26.525H102.784V35.3814H104.572V38.0567H113.419V35.3945H115.207V26.525H113.419ZM106.533 35.3945V26.525H111.457V35.3814H106.533V35.3945Z" fill="white"/>
<path d="M98.2871 30.9532V29.6221H93.8704V32.2974H96.3256V35.3945H91.4018V26.525H98.2871V23.8496H89.4403V26.525H87.6522V35.3945H89.4403V38.0567H98.2871V35.3945H100.075V30.9532H98.2871Z" fill="white"/>
<path d="M71.0657 28.2778V26.525H69.5045V23.8496H66.7957V26.525V28.2778V30.9532V38.0567H71.0657V30.9532H73.1606V28.2778H71.0657Z" fill="white"/>
<path d="M75.2555 30.9532H73.1606V33.6285H75.2555V35.3945H76.8167V38.0567H79.5255V35.3945V28.1987V23.8496H75.2555V30.9532Z" fill="white"/>
</svg>
