<svg width="160" height="60" viewBox="0 0 160 60" fill="none" xmlns="http://www.w3.org/2000/svg">
<rect x="37" y="22" width="104" height="19" fill="#D7FBCF"/>
<path d="M71.118 31.772L68.752 32.08V24.492H67.268V32.262L58.742 33.354L58.938 34.768L67.268 33.704V37.456H68.752V33.508L71.328 33.186L71.118 31.772ZM62.396 25.01L61.36 26.018C62.9 27.11 64.09 28.118 64.93 29.042L66.022 27.95C65.042 26.97 63.824 25.99 62.396 25.01ZM60.912 27.992L59.876 29C61.402 30.064 62.578 31.058 63.418 31.968L64.552 30.834C63.558 29.896 62.34 28.944 60.912 27.992ZM72.686 24.968V26.396H76.732V28.076H73.442V37.386H74.912V36.868H83.116V37.386H84.586V28.076H81.212V26.396H85.314V24.968H72.686ZM74.912 35.496V33.62L75.892 34.474C77.376 33.438 78.146 31.786 78.174 29.518V29.448H79.77V31.982C79.77 33.046 80.274 33.592 81.31 33.592H83.116V35.496H74.912ZM78.174 26.396H79.77V28.076H78.174V26.396ZM74.912 33.354V29.448H76.732V29.518C76.704 31.254 76.102 32.528 74.912 33.354ZM81.212 29.448H83.116V32.262H81.758C81.394 32.262 81.212 32.038 81.212 31.618V29.448ZM95.114 32.15C95.772 34.012 96.836 35.566 98.32 36.812L99.356 35.594C97.942 34.614 96.92 33.326 96.276 31.744C97.088 31.422 97.858 31.03 98.572 30.582L97.592 29.602C96.5 30.302 95.352 30.82 94.134 31.17C93.882 30.694 93.56 30.246 93.168 29.826C93.476 29.644 93.77 29.448 94.078 29.238H97.144V27.894H88.856V29.238H91.768C91.516 29.35 91.25 29.462 90.984 29.574C89.85 30.036 88.646 30.4 87.372 30.652L88.114 31.87C89.794 31.366 91.096 30.89 91.992 30.456C91.992 30.442 92.02 30.428 92.048 30.428C92.16 30.568 92.286 30.708 92.398 30.876C91.138 31.744 89.374 32.472 87.106 33.046L87.834 34.292C89.976 33.676 91.698 32.878 93 31.926C93.098 32.15 93.182 32.388 93.266 32.654C91.768 33.83 89.654 34.796 86.924 35.566L87.652 36.812C90.046 36.084 91.992 35.16 93.504 34.04C93.504 34.124 93.518 34.222 93.518 34.334C93.518 35.076 93.392 35.58 93.168 35.846C92.972 36.042 92.496 36.154 91.74 36.154H91.012L91.502 37.442H91.936C93.224 37.442 94.064 37.176 94.442 36.672C94.75 36.252 94.918 35.482 94.918 34.334C94.904 33.606 94.806 32.934 94.61 32.29C94.778 32.248 94.946 32.206 95.114 32.15ZM93.378 24.408L91.88 24.66C92.034 24.94 92.174 25.248 92.314 25.584H86.966V28.244H88.408V26.928H97.578V28.244H99.034V25.584H93.798C93.658 25.15 93.518 24.758 93.378 24.408ZM107.658 24.338L106.02 24.618C106.258 24.996 106.468 25.402 106.664 25.85H101.596V30.148C101.568 32.836 101.204 34.95 100.504 36.462L101.75 37.568C102.59 35.706 103.038 33.228 103.08 30.148V27.264H113.286V25.85H108.288C108.092 25.29 107.882 24.786 107.658 24.338ZM121.588 30.54C121.14 31.744 120.426 32.724 119.432 33.494L120.356 34.628C121.588 33.634 122.456 32.276 122.96 30.54H123.702C123.422 31.856 122.988 32.92 122.414 33.732C121.742 34.6 120.762 35.384 119.474 36.084L120.384 37.246C121.84 36.406 122.932 35.454 123.66 34.39C124.276 33.452 124.766 32.164 125.102 30.54H125.718C125.634 33.354 125.508 34.936 125.34 35.272C125.158 35.692 124.836 35.916 124.388 35.93C123.884 35.93 123.366 35.902 122.848 35.846L123.254 37.246C123.688 37.274 124.136 37.302 124.598 37.302C125.718 37.274 126.404 36.798 126.656 35.846C126.908 34.894 127.09 32.696 127.188 29.28H122.204C123.632 28.37 124.934 27.418 126.124 26.424V25.164H119.936V26.494H123.954C122.652 27.446 121.238 28.356 119.726 29.21V30.54H121.588ZM114.644 28.216V29.63H116.17V34.39C115.61 34.516 115.064 34.628 114.504 34.712L114.896 36.266C116.436 35.902 117.864 35.468 119.208 34.964V33.438C118.69 33.634 118.172 33.816 117.654 33.984V29.63H119.25V28.216H117.654V24.842H116.17V28.216H114.644Z" fill="#14AF64"/>
<rect x="40" y="24" width="2" height="15" fill="black"/>
<rect x="143" y="39" width="2" height="15" transform="rotate(-180 143 39)" fill="black"/>
<rect x="139" y="20" width="2" height="100" transform="rotate(90 139 20)" fill="black"/>
<rect x="139" y="41" width="2" height="100" transform="rotate(90 139 41)" fill="black"/>
<rect x="141" y="41" width="2" height="2" transform="rotate(-180 141 41)" fill="black"/>
<rect x="42" y="39" width="2" height="2" fill="black"/>
<rect x="141" y="24" width="2" height="2" transform="rotate(-180 141 24)" fill="black"/>
<rect x="17" y="31" width="34" height="7" fill="#D7FBCF"/>
<rect x="22" y="26" width="25" height="14" fill="#D7FBCF"/>
<rect x="28" y="25" width="13" height="18" fill="#D7FBCF"/>
<rect x="33" y="39" width="3" height="7" fill="black"/>
<rect x="15" y="30" width="3" height="7" fill="black"/>
<rect width="3" height="7" transform="matrix(-1 0 0 1 54 30)" fill="black"/>
<rect width="4" height="4" transform="matrix(-1 0 0 1 22 27)" fill="black"/>
<rect x="47" y="27" width="4" height="4" fill="black"/>
<rect x="31" y="43" width="3" height="3" fill="black"/>
<rect width="3" height="3" transform="matrix(-1 0 0 1 38 43)" fill="black"/>
<rect x="30" y="36" width="3" height="4" fill="black"/>
<rect width="3" height="4" transform="matrix(-1 0 0 1 39 36)" fill="black"/>
<rect width="3" height="3" transform="matrix(-1 0 0 1 24 26)" fill="black"/>
<rect x="45" y="26" width="3" height="3" fill="black"/>
<rect x="28" y="41" width="3" height="3" fill="black"/>
<rect width="3" height="3" transform="matrix(-1 0 0 1 41 41)" fill="black"/>
<rect x="27" y="35" width="3" height="3" fill="black"/>
<rect width="3" height="3" transform="matrix(-1 0 0 1 42 35)" fill="black"/>
<rect width="3" height="3" transform="matrix(-1 0 0 1 27 24)" fill="black"/>
<rect x="42" y="24" width="3" height="3" fill="black"/>
<rect x="25" y="39" width="3" height="3" fill="black"/>
<rect width="3" height="3" transform="matrix(-1 0 0 1 44 39)" fill="black"/>
<rect x="24" y="34" width="3" height="3" fill="black"/>
<rect width="3" height="3" transform="matrix(-1 0 0 1 45 34)" fill="black"/>
<rect width="2" height="3" transform="matrix(-1 0 0 1 29 23)" fill="black"/>
<rect x="40" y="23" width="2" height="3" fill="black"/>
<rect x="22" y="38" width="3" height="3" fill="black"/>
<rect width="3" height="3" transform="matrix(-1 0 0 1 47 38)" fill="black"/>
<rect x="21" y="32" width="3" height="3" fill="black"/>
<rect width="3" height="3" transform="matrix(-1 0 0 1 48 32)" fill="black"/>
<rect width="2.82596" height="2.82596" transform="matrix(-1 0 0 1 31.8259 28)" fill="black"/>
<rect x="38.1741" y="28" width="2.82596" height="2.82596" fill="black"/>
<rect width="3" height="4" transform="matrix(-1 0 0 1 33 30)" fill="black"/>
<rect x="37" y="30" width="3" height="4" fill="black"/>
<rect width="2" height="2" transform="matrix(-1 0 0 1 30 30)" fill="black"/>
<rect x="40" y="30" width="2" height="2" fill="black"/>
<rect width="2" height="2" transform="matrix(-1 0 0 1 33 20)" fill="black"/>
<rect x="37" y="20" width="2" height="2" fill="black"/>
<rect x="31" y="20" width="8" height="12" fill="#14AF64"/>
<rect width="3" height="3" transform="matrix(-1 0 0 1 33 17)" fill="black"/>
<rect x="37" y="17" width="3" height="3" fill="black"/>
<rect width="2" height="10" transform="matrix(-1 0 0 1 31 19)" fill="black"/>
<rect x="39" y="19" width="2" height="10" fill="black"/>
<rect width="2" height="9" transform="matrix(-1 0 0 1 36 23)" fill="black"/>
<rect width="4" height="4" transform="matrix(-1 0 0 1 37 31)" fill="black"/>
<rect width="4" height="3" transform="matrix(-1 0 0 1 37 21)" fill="black"/>
<rect width="4" height="6" transform="matrix(-1 0 0 1 37 15)" fill="black"/>
<rect width="2" height="6" transform="matrix(-1 0 0 1 36 11)" fill="black"/>
<rect x="18" y="36" width="4" height="3" fill="black"/>
<rect width="4" height="3" transform="matrix(-1 0 0 1 51 36)" fill="black"/>
<rect x="18" y="31" width="4" height="3" fill="black"/>
<rect width="4" height="3" transform="matrix(-1 0 0 1 51 31)" fill="black"/>
</svg>
