<?xml version="1.0" encoding="UTF-8"?>
<svg width="22px" height="22px" viewBox="0 0 22 22" version="1.1" xmlns="http://www.w3.org/2000/svg" xmlns:xlink="http://www.w3.org/1999/xlink">
    <title>设置</title>
    <defs>
        <filter id="filter-1">
            <feColorMatrix in="SourceGraphic" type="matrix" values="0 0 0 0 1.000000 0 0 0 0 1.000000 0 0 0 0 1.000000 0 0 0 1.000000 0"></feColorMatrix>
        </filter>
    </defs>
    <g id="页面-1" stroke="none" stroke-width="1" fill="none" fill-rule="evenodd">
        <g id="登录小卡片" transform="translate(-1271.000000, -306.000000)">
            <g id="编组-20备份-2" transform="translate(1251.000000, 188.000000)">
                <g id="编组-18" transform="translate(0.000000, 110.000000)">
                    <g id="编组-16" transform="translate(20.000000, 8.000000)" filter="url(#filter-1)">
                        <g transform="translate(4.000000, 4.000000)">
                            <path d="M9.12557671,-0.63076407 L10.8781284,0.099175144 C10.5502434,0.970812268 10.771042,1.93656885 11.4219338,2.57626353 C12.0646939,3.22313055 13.0344006,3.44314667 13.9099361,3.10584977 L13.9099361,3.10584977 L14.6273819,4.85451181 C14.1859366,5.06446762 13.8210411,5.40227357 13.5799927,5.826201 C13.2692389,6.36816958 13.1857671,7.01235582 13.3542345,7.61944775 C13.5318871,8.28297221 13.9969617,8.84060776 14.6294039,9.13520074 L14.6294039,9.13520074 L13.9057851,10.8846303 C13.0306534,10.5568765 12.0683935,10.7819703 11.4291391,11.4295006 C10.7912975,12.0714418 10.5738924,13.0346652 10.8991939,13.9082906 L10.8991939,13.9082906 L9.15194708,14.6297048 C8.94705043,14.1858585 8.61407758,13.8250626 8.19928576,13.58356 C7.83863864,13.3731452 7.42942688,13.2609689 7.01151789,13.2621599 C6.80555518,13.2621599 6.60081251,13.2897683 6.40160366,13.3423625 C5.85947848,13.4850082 5.3871761,13.8152851 5.06922286,14.2765541 C3.86367458,14.2303753 3.68121978,14.1448972 3.52414188,14.0717183 C3.36878261,12.7637207 3.12688545,11.9732385 2.56654337,11.4237315 C1.92837958,10.7814721 0.966904313,10.562782 0.0970126743,10.8888258 L0.0970126743,10.8888258 L-0.630831831,9.14380131 C-0.182799526,8.93580983 0.186680561,8.59502924 0.428819684,8.17205321 C0.740930745,7.62859798 0.821492621,6.98406357 0.654599365,6.37839447 C0.47556073,5.71370389 0.0113209036,5.15835389 -0.622974832,4.8625922 L-0.622974832,4.8625922 L0.0917427393,3.1248165 C0.55260527,3.29076927 1.0478241,3.31344031 1.51808038,3.18822146 C2.1212577,3.02910095 2.63680057,2.63373135 2.94838693,2.08707465 C3.23078228,1.6019706 3.33067054,1.03364933 3.22861922,0.481912098 C3.19413081,0.295451585 3.13742701,0.115471987 3.06077896,-0.0546770347 C3.24608413,-0.0818896104 3.45837431,-0.100812514 3.70410584,-0.108765542 C4.89560196,-0.147327961 5.31919432,0.1223168 5.68959377,0.347680166 C6.34397739,0.727158771 6.99456654,0.820716802 7.60903951,0.6510389 C8.27244644,0.473079431 8.83010288,0.00710465959 9.12557671,-0.63076407 L9.12557671,-0.63076407 Z" id="Fill-1" stroke="#000000" stroke-linejoin="round"></path>
                            <circle id="椭圆形" stroke="#000000" cx="7" cy="7" r="2"></circle>
                        </g>
                    </g>
                </g>
            </g>
        </g>
    </g>
</svg>