<svg width="22" height="22" viewBox="0 0 22 22" fill="none" xmlns="http://www.w3.org/2000/svg">
<g clip-path="url(#clip0)">
<path fill-rule="evenodd" clip-rule="evenodd" d="M4.84307 12.2034L7.17565 3.4981C8.40749 3.30343 9.34113 3.31513 10.1949 3.54655C11.1205 3.79743 12.0029 4.32016 13.0971 5.22243C14.2405 6.17887 15.237 6.79248 16.3529 7.08944C17.2713 7.33383 18.2353 7.35433 19.3785 7.21854L17.0473 15.9187C15.8228 16.1129 14.9207 16.115 14.0833 15.8928C13.1738 15.6515 12.2871 15.1316 11.1204 14.1901L11.1194 14.1893C9.89085 13.203 8.90524 12.5938 7.81573 12.309C6.91704 12.0741 5.98481 12.0699 4.84307 12.2034ZM2.98744 19.1287L4.56335 13.2474C5.84963 13.0699 6.74314 13.0622 7.56285 13.2765C8.44811 13.5079 9.30176 14.0125 10.4929 14.9687C11.7036 15.9457 12.7194 16.5655 13.8269 16.8593C14.9368 17.1538 16.0854 17.1067 17.534 16.851L17.8476 16.7956L17.9301 16.488L20.5403 6.74659L20.7405 5.99942L19.977 6.12368C18.55 6.35592 17.5285 6.36749 16.6101 6.12308C15.6933 5.8791 14.8273 5.36619 13.7374 4.45431L13.7374 4.4543L13.7347 4.45207C12.5878 3.50617 11.5771 2.88509 10.4565 2.58138C9.33447 2.27724 8.15297 2.30496 6.68805 2.56619L6.37513 2.62199L6.29286 2.92901L3.68267 12.6704L2.02152 18.8699L2.98744 19.1287ZM13.8211 7.40404C13.5874 6.74141 12.7612 6.52003 12.2275 6.97705L11.6137 7.50275L10.8057 7.52284C10.1033 7.54031 9.63747 8.25765 9.90721 8.90643L10.2175 9.65271L9.98691 10.4273C9.78647 11.1008 10.3247 11.7655 11.0251 11.7094L11.8308 11.6449L12.4962 12.1036C13.0747 12.5023 13.8733 12.1958 14.0364 11.5124L14.224 10.7263L14.8659 10.2351C15.4239 9.80811 15.3791 8.95395 14.7795 8.58762L14.0899 8.16624L13.8211 7.40404ZM12.2641 8.2623L12.878 7.7366L13.1468 8.4988C13.2233 8.71573 13.3722 8.89964 13.5685 9.01957L14.2581 9.44095L13.6163 9.93211C13.4336 10.0719 13.3047 10.2704 13.2513 10.4941L13.0637 11.2802L12.3983 10.8216C12.2089 10.691 11.9803 10.6298 11.751 10.6481L10.9454 10.7126L11.1759 9.93799C11.2415 9.71753 11.2292 9.4812 11.1409 9.26881L10.8306 8.52253L11.6385 8.50244C11.8685 8.49672 12.0894 8.41191 12.2641 8.2623Z" fill="black"/>
</g>
<defs>
<clipPath id="clip0">
<rect width="22" height="22" fill="white"/>
</clipPath>
</defs>
</svg>
