<?xml version="1.0" encoding="UTF-8"?>
<svg width="22px" height="22px" viewBox="0 0 22 22" version="1.1" xmlns="http://www.w3.org/2000/svg" xmlns:xlink="http://www.w3.org/1999/xlink">
    <title>工作台</title>
    <g id="页面-1" stroke="none" stroke-width="1" fill="none" fill-rule="evenodd">
        <g id="登录小卡片" transform="translate(-1731.000000, -267.000000)">
            <g id="编组-20" transform="translate(1711.000000, 188.000000)">
                <g id="编组-17" transform="translate(0.000000, 70.000000)">
                    <polygon id="Fill-29备份" fill-opacity="0" fill="#FFFFFF" points="0 40 170 40 170 0 0 0"></polygon>
                    <g id="编组-14" transform="translate(23.000000, 13.000000)">
                        <rect id="矩形" stroke="#000000" x="0" y="0" width="16" height="12" rx="2"></rect>
                        <polygon id="Stroke-3" stroke="#000000" stroke-linejoin="round" points="11 14 5 14 6.05988341 12 9.94011659 12"></polygon>
                        <line x1="3" y1="14" x2="13" y2="14" id="Stroke-5" stroke="#000000" stroke-linejoin="round"></line>
                        <line x1="0" y1="8" x2="16" y2="8" id="Stroke-7" stroke="#000000" stroke-linejoin="round"></line>
                        <path d="M9,10 C9,10.5525965 8.55193076,11 8,11 C7.44740346,11 7,10.5525965 7,10 C7,9.44740346 7.44740346,9 8,9 C8.55193076,9 9,9.44740346 9,10" id="Fill-9" fill="#000000"></path>
                    </g>
                </g>
            </g>
        </g>
    </g>
</svg>