<svg xmlns="http://www.w3.org/2000/svg" width="108" height="108" viewBox="0 0 108 108">
  <defs>
    <style>
      .cls-1, .cls-5 {
        fill: none;
      }

      .cls-2, .cls-4 {
        isolation: isolate;
      }

      .cls-3 {
        fill: #14af64;
      }

      .cls-4 {
        opacity: 0.9;
      }

      .cls-5 {
        stroke: #3c3c3c;
        stroke-miterlimit: 10;
        stroke-width: 3px;
      }
    </style>
  </defs>
  <g id="组_4500" data-name="组 4500" transform="translate(-824 -449)">
    <rect id="矩形_1010" data-name="矩形 1010" class="cls-1" width="108" height="108" transform="translate(824 449)"/>
    <g id="组_3774" data-name="组 3774" transform="translate(858 461)">
      <g id="组_3773" data-name="组 3773" class="cls-2" transform="translate(1.322)">
        <g id="组_3772" data-name="组 3772">
          <path id="路径_593" data-name="路径 593" class="cls-3" d="M67.966,266.03a23.508,23.508,0,0,1,2.2,10.5c-.025.865-.251,1.113-1.1,1.066-1.082-.061-2.171.013-3.257.029-3.052-.016-6.1-.043-9.156-.045-6.725-.007-13.45-.031-20.174.026-1.094.009-1.285-.324-1.289-1.333a20.043,20.043,0,0,1,3.284-11.735A11.66,11.66,0,0,1,41.2,261.81c0,1.848-.006,3.451,0,5.054a2.972,2.972,0,0,0,.141,1.282,1.212,1.212,0,0,0,1.241.867,1.122,1.122,0,0,0,1.039-.964,6.325,6.325,0,0,0,.14-1.291c.013-2.36,0-4.72.01-7.079a2.142,2.142,0,0,1,3.047-1.8c.4.2.258.566.26.866.013,2.032,0,4.065.011,6.1a5.82,5.82,0,0,0,.086,1.078,1.181,1.181,0,0,0,2.316.142,4.183,4.183,0,0,0,.159-1.284c.013-2.686.031-5.373-.009-8.059-.011-.722.214-.939.923-.916,1.452.047,2.908.046,4.361,0,.682-.022.862.219.854.872-.031,2.723-.013,5.446-.012,8.168a4.034,4.034,0,0,0,.025.869c.14.629.407,1.22,1.164,1.232a1.207,1.207,0,0,0,1.285-1.212c.08-.792.086-1.592.093-2.389.013-1.525.035-3.05-.01-4.574-.021-.7.187-.946.914-.949,1.919-.007,2.385.411,2.386,2.333q0,3.267,0,6.535c0,.326.009.653.039.978.071.783.478,1.353,1.279,1.355.857,0,1.162-.691,1.185-1.422.047-1.487.008-2.977.023-4.465a1.878,1.878,0,0,1,.139-1.116C66.058,262.881,66.817,264.638,67.966,266.03Z" transform="translate(-33.967 -255.804)"/>
          <path id="路径_594" data-name="路径 594" class="cls-3" d="M63.1,298.485c1.85.01,2.824.054,4.674.016,1.077-.022,2.317-.049,2.566,2.034a1.66,1.66,0,0,1-1.31,2.035c-6.211,1.84-11.642,3.012-18.151,2.86-1.012-.024-2.024-.052-3.036-.078a58.55,58.55,0,0,1-13.079-2.692c-1.651-.495-1.915-.892-1.684-2.589.239-1.758,1.245-1.555,2.906-1.557Z" transform="translate(-33.009 -274.567)"/>
        </g>
      </g>
      <g id="组_3771" data-name="组 3771" class="cls-4" transform="translate(0 9.021)">
        <ellipse id="椭圆_116" data-name="椭圆 116" class="cls-5" cx="16.129" cy="16.119" rx="16.129" ry="16.119" transform="translate(3.871)"/>
        <path id="矩形_761" data-name="矩形 761" class="cls-5" d="M20,0h0A20,20,0,0,1,40,20V35.463a0,0,0,0,1,0,0H0a0,0,0,0,1,0,0V20A20,20,0,0,1,20,0Z" transform="translate(0 35.516)"/>
      </g>
    </g>
  </g>
</svg>
