<svg xmlns="http://www.w3.org/2000/svg" width="108" height="108" viewBox="0 0 108 108">
  <defs>
    <style>
      .cls-1, .cls-4 {
        fill: none;
      }

      .cls-2 {
        fill: #c5c5c5;
      }

      .cls-3 {
        opacity: 0.9;
        isolation: isolate;
      }

      .cls-4 {
        stroke: #3c3c3c;
        stroke-miterlimit: 10;
        stroke-width: 3px;
      }
    </style>
  </defs>
  <g id="组_4497" data-name="组 4497" transform="translate(-824 -449)">
    <rect id="矩形_1175" data-name="矩形 1175" class="cls-1" width="108" height="108" transform="translate(824 449)"/>
    <g id="组_3774" data-name="组 3774" transform="translate(858 461)">
      <path id="路径_593" data-name="路径 593" class="cls-2" d="M67.966,266.036a23.534,23.534,0,0,1,2.2,10.5c-.025.866-.251,1.114-1.1,1.067-1.082-.061-2.171.013-3.257.029-3.052-.016-6.1-.043-9.156-.045-6.725-.007-13.45-.031-20.174.026-1.094.009-1.285-.324-1.289-1.334a20.064,20.064,0,0,1,3.284-11.742,11.663,11.663,0,0,1,2.725-2.726c0,1.849-.006,3.453,0,5.057a2.976,2.976,0,0,0,.141,1.283,1.212,1.212,0,0,0,1.241.867,1.122,1.122,0,0,0,1.039-.965,6.333,6.333,0,0,0,.14-1.292c.013-2.361,0-4.722.01-7.084a2.142,2.142,0,0,1,3.047-1.8c.4.2.258.566.26.866.013,2.034,0,4.068.011,6.1a5.827,5.827,0,0,0,.086,1.079,1.181,1.181,0,0,0,2.316.142,4.188,4.188,0,0,0,.159-1.285c.013-2.688.031-5.377-.009-8.064-.011-.722.214-.94.923-.916,1.452.047,2.908.046,4.361,0,.682-.022.862.219.854.872-.031,2.725-.013,5.449-.012,8.173a4.039,4.039,0,0,0,.025.869c.14.63.407,1.221,1.164,1.232a1.207,1.207,0,0,0,1.285-1.212c.08-.792.086-1.593.093-2.39.013-1.526.035-3.052-.01-4.576-.021-.7.187-.947.914-.949,1.919-.007,2.385.411,2.386,2.334q0,3.269,0,6.539c0,.326.009.654.039.978.071.783.478,1.354,1.279,1.356.857,0,1.162-.691,1.185-1.422.047-1.488.008-2.979.023-4.468a1.881,1.881,0,0,1,.139-1.116C66.058,262.885,66.817,264.644,67.966,266.036Z" transform="translate(-32.645 -255.804)"/>
      <path id="路径_594" data-name="路径 594" class="cls-2" d="M63.1,298.485c1.85.01,2.824.054,4.674.016,1.077-.022,2.317-.049,2.566,2.035a1.661,1.661,0,0,1-1.31,2.036c-6.211,1.841-11.642,3.014-18.151,2.862-1.012-.024-2.024-.052-3.036-.078a58.519,58.519,0,0,1-13.079-2.694c-1.651-.5-1.915-.892-1.684-2.59.239-1.76,1.245-1.556,2.906-1.558Z" transform="translate(-31.688 -274.553)"/>
      <g id="组_3771" data-name="组 3771" class="cls-3" transform="translate(0 9.026)">
        <ellipse id="椭圆_116" data-name="椭圆 116" class="cls-4" cx="16.129" cy="16.129" rx="16.129" ry="16.129" transform="translate(3.871)"/>
        <path id="矩形_761" data-name="矩形 761" class="cls-4" d="M20,0h0A20,20,0,0,1,40,20V35.484a0,0,0,0,1,0,0H0a0,0,0,0,1,0,0V20A20,20,0,0,1,20,0Z" transform="translate(0 35.538)"/>
      </g>
    </g>
  </g>
</svg>
