<svg xmlns="http://www.w3.org/2000/svg" width="108" height="108" viewBox="0 0 108 108">
  <defs>
    <style>
      .cls-1, .cls-6 {
        fill: none;
      }

      .cls-1 {
        opacity: 0;
      }

      .cls-2, .cls-5 {
        opacity: 0.9;
      }

      .cls-2, .cls-4 {
        isolation: isolate;
      }

      .cls-3 {
        fill: #14af64;
      }

      .cls-6 {
        stroke: #3c3c3c;
        stroke-miterlimit: 10;
        stroke-width: 3px;
      }
    </style>
  </defs>
  <g id="组_3957" data-name="组 3957" transform="translate(-999 -459)">
    <rect id="矩形_1011" data-name="矩形 1011" class="cls-1" width="108" height="108" transform="translate(999 459)"/>
    <g id="组_3801" data-name="组 3801" class="cls-2" transform="translate(1033 480)">
      <path id="路径_600" data-name="路径 600" class="cls-3" d="M342.768,293.565s-5.587-11.319,1.035-14.888c3.053-1.645,3.862,3.775,3.849,10.1C347.651,288.773,342.664,282.96,342.768,293.565Z" transform="translate(-339.24 -273.653)"/>
      <path id="路径_601" data-name="路径 601" class="cls-3" d="M401.022,293.565s5.587-11.319-1.035-14.888c-3.053-1.645-3.863,3.775-3.849,10.1C396.139,288.773,401.125,282.96,401.022,293.565Z" transform="translate(-364.438 -273.653)"/>
      <g id="组_3780" data-name="组 3780" class="cls-4" transform="translate(8.299 33.092)">
        <path id="路径_602" data-name="路径 602" class="cls-3" d="M371.568,334.961l-11.7-6.658v13.317Z" transform="translate(-359.867 -328.302)"/>
        <path id="路径_603" data-name="路径 603" class="cls-3" d="M374.732,334.961l11.7,6.658V328.3Z" transform="translate(-363.031 -328.302)"/>
      </g>
      <g id="组_3779" data-name="组 3779" class="cls-5" transform="translate(0 0)">
        <ellipse id="椭圆_118" data-name="椭圆 118" class="cls-6" cx="16.129" cy="15.897" rx="16.129" ry="15.897" transform="translate(3.871)"/>
        <path id="矩形_763" data-name="矩形 763" class="cls-6" d="M20,0h0A20,20,0,0,1,40,20V34.973a0,0,0,0,1,0,0H0a0,0,0,0,1,0,0V20A20,20,0,0,1,20,0Z" transform="translate(0 35.027)"/>
      </g>
    </g>
  </g>
</svg>
