<svg xmlns="http://www.w3.org/2000/svg" width="108" height="108" viewBox="0 0 108 108">
  <defs>
    <style>
      .cls-1, .cls-7, .cls-9 {
        fill: none;
      }

      .cls-2, .cls-3, .cls-5 {
        isolation: isolate;
      }

      .cls-3, .cls-5 {
        mix-blend-mode: multiply;
      }

      .cls-4, .cls-5 {
        fill: #14af64;
      }

      .cls-6 {
        opacity: 0.9;
      }

      .cls-7, .cls-8 {
        stroke: #3c3c3c;
      }

      .cls-7, .cls-8, .cls-9 {
        stroke-miterlimit: 10;
        stroke-width: 3px;
      }

      .cls-8 {
        fill: #00c84b;
      }

      .cls-9 {
        stroke: #333;
      }
    </style>
  </defs>
  <g id="组_4501" data-name="组 4501" transform="translate(-819 -449)">
    <rect id="矩形_1177" data-name="矩形 1177" class="cls-1" width="108" height="108" transform="translate(819 449)"/>
    <g id="组_3804" data-name="组 3804" class="cls-2" transform="translate(833 474)">
      <g id="组_4503" data-name="组 4503">
        <g id="组_3783" data-name="组 3783" class="cls-3" transform="translate(52.943 18.902)">
          <g id="组_3782" data-name="组 3782">
            <path id="路径_604" data-name="路径 604" class="cls-4" d="M586.26,339.091l-6.344-6.341-14.074,14.069,6.345,6.34Zm.8-.729c.654-.654,1.331-1.324,2-2a1.42,1.42,0,0,0,.047-2.2c-1.443-1.488-2.917-2.947-4.4-4.4a1.234,1.234,0,0,0-1.778-.063c-.785.739-1.486,1.568-2.2,2.335Zm-24.512,18.082,8.837-2.506-6.329-6.327Z" transform="translate(-562.545 -329.35)"/>
            <path id="路径_605" data-name="路径 605" class="cls-4" d="M588.555,341.457l-14.072,14.068-6.345-6.34,14.073-14.069Z" transform="translate(-564.841 -331.716)"/>
            <path id="路径_606" data-name="路径 606" class="cls-4" d="M599.715,338.361l-6.33-6.328c.716-.768,1.416-1.6,2.2-2.335a1.234,1.234,0,0,1,1.778.063c1.479,1.451,2.953,2.91,4.4,4.4a1.42,1.42,0,0,1-.047,2.2C601.046,337.038,600.37,337.707,599.715,338.361Z" transform="translate(-575.203 -329.35)"/>
            <path id="路径_607" data-name="路径 607" class="cls-4" d="M562.545,369.156l2.508-8.833,6.329,6.327Z" transform="translate(-562.545 -342.062)"/>
          </g>
        </g>
        <rect id="矩形_765" data-name="矩形 765" class="cls-5" width="25.052" height="3.654" transform="translate(0 5.471)"/>
        <rect id="矩形_766" data-name="矩形 766" class="cls-5" width="20.564" height="3.654" transform="translate(0 11.914)"/>
        <rect id="矩形_767" data-name="矩形 767" class="cls-5" width="12.526" height="3.654" transform="translate(0 18.356)"/>
        <rect id="矩形_768" data-name="矩形 768" class="cls-5" width="8.583" height="3.654" transform="translate(16.469 18.356)"/>
      </g>
      <g id="组_4505" data-name="组 4505" class="cls-6">
        <g id="组_4504" data-name="组 4504">
          <rect id="矩形_764" data-name="矩形 764" class="cls-7" width="67.882" height="49.068" transform="translate(3.83)"/>
          <line id="直线_21" data-name="直线 21" class="cls-8" x2="67.882" transform="translate(3.83 37.541)"/>
          <path id="路径_608" data-name="路径 608" class="cls-7" d="M540.031,389.539h-21.2l1.433-9.024H538.6Z" transform="translate(-491.662 -331.447)"/>
          <line id="直线_22" data-name="直线 22" class="cls-7" x2="32.782" transform="translate(21.38 58.092)"/>
          <ellipse id="椭圆_119" data-name="椭圆 119" class="cls-9" cx="1.769" cy="1.769" rx="1.769" ry="1.769" transform="translate(36.002 41.583)"/>
        </g>
        <g id="组_3784" data-name="组 3784" transform="translate(31.895 7.298)">
          <path id="路径_609" data-name="路径 609" class="cls-7" d="M547.72,309.667H526.844v19.369h4.987" transform="translate(-526.844 -309.667)"/>
          <path id="路径_610" data-name="路径 610" class="cls-7" d="M556.787,313.495l3.827-3.827h4.059v19.369H544.7" transform="translate(-534.171 -309.667)"/>
          <line id="直线_23" data-name="直线 23" class="cls-7" y2="14.024" transform="translate(14.845 5.345)"/>
          <line id="直线_24" data-name="直线 24" class="cls-7" x2="2.204" transform="translate(0 9.974)"/>
          <line id="直线_25" data-name="直线 25" class="cls-7" x2="10.197" transform="translate(4.649 9.974)"/>
          <line id="直线_26" data-name="直线 26" class="cls-7" y2="2.61" transform="translate(14.845)"/>
        </g>
      </g>
    </g>
  </g>
</svg>
